<mxfile host="65bd71144e">
    <diagram id="HIP3nbAZw_EuaXWnEj3U" name="Page-1">
        <mxGraphModel dx="1086" dy="743" grid="1" gridSize="10" guides="1" tooltips="1" connect="1" arrows="1" fold="1" page="1" pageScale="1" pageWidth="850" pageHeight="1100" math="0" shadow="0">
            <root>
                <mxCell id="0"/>
                <mxCell id="1" parent="0"/>
                <mxCell id="7" value="http://ics2o.mths.ca" style="swimlane;whiteSpace=wrap;html=1;" vertex="1" parent="1">
                    <mxGeometry x="20" y="80" width="782.5899999999999" height="480" as="geometry"/>
                </mxCell>
                <mxCell id="8" value="&lt;span style=&quot;font-size: 18px;&quot;&gt;fahrenheit&amp;nbsp;to celsius conversion with JS&amp;nbsp;&lt;/span&gt;" style="rounded=0;whiteSpace=wrap;html=1;" vertex="1" parent="7">
                    <mxGeometry y="20" width="760" height="60" as="geometry"/>
                </mxCell>
                <mxCell id="9" value="&lt;font style=&quot;font-size: 21px;&quot;&gt;Formula&lt;br&gt;V =&amp;nbsp;&lt;span style=&quot;background-color: initial;&quot;&gt;(32&lt;/span&gt;&lt;b style=&quot;background-color: initial;&quot;&gt;°F&lt;/b&gt;&lt;span style=&quot;background-color: initial;&quot;&gt;&amp;nbsp;&lt;/span&gt;&lt;span style=&quot;background-color: initial;&quot;&gt;− 32) × 5/9 = 0&lt;/span&gt;&lt;b style=&quot;background-color: initial;&quot;&gt;°C&lt;/b&gt;&lt;/font&gt;" style="text;html=1;align=center;verticalAlign=middle;resizable=0;points=[];autosize=1;strokeColor=none;fillColor=none;fontSize=18;" vertex="1" parent="7">
                    <mxGeometry x="10" y="105" width="280" height="60" as="geometry"/>
                </mxCell>
                <mxCell id="10" value="Enter fahrenheit&amp;nbsp;" style="text;html=1;align=center;verticalAlign=middle;resizable=0;points=[];autosize=1;strokeColor=none;fillColor=none;fontSize=18;" vertex="1" parent="7">
                    <mxGeometry x="70" y="170" width="160" height="40" as="geometry"/>
                </mxCell>
                <mxCell id="11" value="" style="rounded=1;whiteSpace=wrap;html=1;fontSize=18;" vertex="1" parent="7">
                    <mxGeometry x="100" y="225" width="150" height="30" as="geometry"/>
                </mxCell>
                <mxCell id="12" value="fahrenheit" style="text;html=1;align=center;verticalAlign=middle;resizable=0;points=[];autosize=1;strokeColor=none;fillColor=none;fontSize=18;" vertex="1" parent="7">
                    <mxGeometry x="5" y="220" width="100" height="40" as="geometry"/>
                </mxCell>
                <mxCell id="13" value="Calculate" style="rounded=1;whiteSpace=wrap;html=1;fontSize=18;" vertex="1" parent="7">
                    <mxGeometry x="30" y="290" width="120" height="45" as="geometry"/>
                </mxCell>
                <mxCell id="14" value="212&lt;b style=&quot;font-size: 21px; background-color: initial;&quot;&gt;°F&amp;nbsp;&lt;/b&gt;is 100&lt;b style=&quot;font-size: 21px; background-color: initial;&quot;&gt;°C&lt;/b&gt;" style="text;html=1;align=center;verticalAlign=middle;resizable=0;points=[];autosize=1;strokeColor=none;fillColor=none;fontSize=18;" vertex="1" parent="7">
                    <mxGeometry x="15" y="350" width="150" height="40" as="geometry"/>
                </mxCell>
                <mxCell id="15" value="" style="shape=image;verticalLabelPosition=bottom;labelBackgroundColor=default;verticalAlign=top;aspect=fixed;imageAspect=0;image=data:image/png,iVBORw0KGgoAAAANSUhEUgAAAOEAAADhCAMAAAAJbSJIAAAA9lBMVEX///+f1Pr/yY8AAACb0vqX0fr/x4vQ6f3/0J3/27f/zpP/5s6j2f//0JT/zJGl3P+Nb09YdYri4uLv7+/o6OixsbGYyu+belekpKRZWVmAqslIYHHhsX5jY2NwlbBpUztVQzCRkZG6urrU1NRPT0+p4f/BmGxDQ0MrKyt1dXUcHBy/v7/29vaBgYEzMzPNzc2Jt9fyv4h7e3udnZ0jLzh0m7c6TVsqOUMxMTE4LB8WFhay3PthgZgYICaHtNTEm26WdlTj8v0QFhpBVmb/1ar/8eTcrXt2XUJGNyephV83Kx9dSTTF5PxPanwyQ05dfJMjGxMXEg0VK4qlAAALUUlEQVR4nO2cCVvaSheAB05tb3OzYFgEFSwECEvYBLEiQqu9uF25+v//zHdmshAVFL42JO1z3ueRQpgJ8+bMGugwRhAEQRAEQRAEQRAEQRAEQRAEQRAEQRAEEVFS9eMkK+bzOVZMiZf5NMumOk3GjlnyGF+wer6eM1L5PL5t5fP5ImN5fNZiLKvrpllPspaTO1lkxxbrlBimOmatUq6eb4Wth4w6TWBmR9dZThcv9Syr66UsPmVmKYX/6qWcboFhjBhL1lJ6ijXBwGeobhjHyabJagbmLpssmWMNi6X7DFPpbGTptY4eth6W2cR4MDOJT4Uh8IdjvYlmDdbuiDRGnSXLjLWTIjUmbOKBtjAsMsPkbzBWzqetHKsJQ5GqwezTho1d5rJpFm1DI99oeYZ6vlZnwjBVFuVNQg0MC52YBeUyxhVMSLI2z20ma3qe1cxyLcugbDajY/iVsY590XMp+5CZRMO+CAI2OUMYWhgyjI+4HmloQ5MfOOYxbKChnctooyFjpYjFkJWLxTIzi32MYavfT7WzfcB2aEE212ftbBYsHlcsbKuVY6JuYiuzDNNqiFraYiWsmjx3O8XqOWx8vJZCto+BxJSRMGRZrJCddDotHqxUNo3dIdbHNLbBZDbLy5jkzbFUwgeryZ+JP3zWSSYxwmnW5LmbFrM6/Ch2Mvi6xJPhMYIg1uL7eWwnPGLn34MWPN/5EAuTDzvnwQpq4foJRy1IwX/DF0TFfwM03AnbTrATnOD3KIQQgxhcb/MpIoafImso/+GGWmaS+SWOkTUcAsDur1CMqKH2AIXMLpysUNzEPGKGMhTs0sOwEtNgqC1NdDpeevx3MJQLl0544ECLaQNYbjiBzO9qGHPrpTyAWKULyw1R/WH9IEbKUC6AE0IMEwxhRQxj8skGQYyUoS82Wma82x1erAoVjNfubLZjKGsObxemC/tuDMeFiia7w4Wb27PSDi5eGcpyTCTQcD2xdUP5YGCzvG/0ko29yicfQKF75bzMXNi5Lwqu1pJqKp9cwIC34geAuf/NLRmeng5gcHp69aahNrxcvM9HfCeimcHp/BLwFIvhsftyqJT34epkCPuVORQKcLltQ6yllQmcVN6ppfKlL8ZyZuIN7JpWOYCYr5bG5JfzHW0O+DY8ZGCsaQWvtm/NUFzjwsumI9ssDqyepmkHz6ulfHkgLgb2vvZxuXAiaxMYT1AO63A0DOXdB8FkYbiyh3xpqA3mtuEJOJGW5e4Q5ry/kWM4mC4I0VC7BIHXojLCUH7JcsMBN8xkCtDNOO90DwY8dlpm4A9hqLW0YuMdFoZyYfcFkyWG8gUa4jltRGbeXE+xtRbgouv/pDBjeDXkzBcXfP0YysC75UzhZBcKJyfi6vCJ7APExtiY5RAN/R+uzU85A89Qhod32uEit90pyRpvh2Kcn0NX7sIgA8NMdzLxXY7tGmZ2dx8WH/5qpjI/XTWc2Iby2M3ddWqE15diEDmZ8Yu2vXXDYbe7eraKc5pVbwlDbKLdgSvWdcTcnliOnYz3+SjaRUKMIRquFOSRmayophqfwckH7p0b7eDydcLnzW/rhrHMfobPv8ZvLQq0S2/I1y54ZVsk7u7HhKFdjWX4L2JrC1EqrnlQeatki/UhdiVX4/F44ntPLDgyc9HB7Ed2fZh5b1nnrfEnMKlUtJepD4aikmtXb0/hQzR87yaZXHDWfRjNwvBq/2Vyp5Jm4K3WHK7he7j32rDvnO8OVtxNlOcb3KaJmmHMqZjySQFHyssVdzE2uNMWPUPPVBNDxAaxeoUcbUO4qsiV+eX/aXh+jhnPI22o8fs04w3uqL1SjLphLHb1h38zw1tR9ye+QTzf/sx7y/gNg/uW+3uIv1TwGe4E+KuhX/Q19U8iBycYahA9ggwhtsTwFXeC62cE32M7H8JkJxb4T/fY909hErwfQRAEQRAEQRAEQRAEQRAEQRAEsSVa9XoRH/EZ/lMykvlcPsXS9XreShv8WDbFjDRPdcyKRr1Vb+HzVt1I1vP21mAtixUxNevznWxSx/UmPut0mFVkyVa+FLKcAPi+XDpgWQBFS3rOMkYsX9IN1hrx/b5yOmu27FTAdLOJiTumbo2afO8vBp30V1brYGqTC486RpaVU9kss2qs3dT7YdtxeDlZq1kWGzsVm3qeWcDyfFOsFga3wXeP6rTsPaPA2UvKyjHrK0MTsUGWu08Ufwf4Q04YttkoAluZcUZfG01WY+UkGzUa0NShBjqrN2p5dpxqp2osP2pAkcHXRloY8lInc2LDKDTUy/wU7VqtaBsaZeh7hnoOorAhnYhhB8qQ9WJo6nYM63rKbL+MoWModvLCGJpo5e71ZZ+vhjnSwhApRyGMWGxWNqwkuO2Q6Ri4IhaybrDiiBeyecwgnRUxFEXm29OVW0W+Z9nXbLHMan1MbeJDykxnG5gmOUrn8Eg6CyHLCZreHz4aKavDt+gySqU0Myx+tGOxlMGapZK9vRffvcsSe3+lRfY+3ymMp+YPlp7NWiIH3yksZe8URhDEGliff/wVHj8+B74x3+ePHz/GwwM//XOwgj/C1HMkfwQp+Hf4gqj4d4CGURBExeAE/4mI4T+BGTqVFPs0/AvRMLhq6jOM/9GG8c0NFY70GxluWiblC///o3u/SDF4Q/UvdcMyqfAlkbiu+rNJykZnkHxXZxuGGwZRPYQp1lK/oJI42iSiUuJ2kXwLtXTTEEpVqCYSM58SOvc2OYs6g942DTdFSsDjEUB1oajcX29WS5WbRYYoGt4mVCUOj14Z1R7MNqsIWA28IEbQEAcL/LsGz1BJPG4WQlRcdMXbMFQVhzVLd59Q4srRwlCFhOIMksvHSfwAiQdZktw+V7l+crNvo6eZ3R8J7nuvC7cElJvGp8LKyQ9TLP+Rc5LbV4rS7P7s6FCKq9/uHq+dQ1U4VLdnWHU2yoH1DONxPuLfey1PuhUZ3ZMkXhriFbjZe4JDvDKJBNzYb/fAvRLbaofwZYOmpBxODxcektskpT0vMM9S34Ci9CDRgz1F+eYm8epAeIaqJFjaSaqq77BydmbnVZYbSt9uFeUQ9qbY42LtnKq29pewDdXpraD67jigwNHyGKrOhZCkwwSciSMYTyfTzVnYhjiuC478x524LlCF4bW0zLBXrVbtgKmzMzjDt6TeDUzttMqX0A1FBNRn1RH7pMQLuMEKQ9GBiTFBUnGG8HQmKXjEnexFIIauzbPOf3kMn5bX0t4hgq97T3sKnyFgn3sdd8+m3N2EYujrV9xa+v6MU7m/8xvyq+BcD7sGKI+PqtJ7Ouu5sbY/8CgMQ/XWN52W1p3oKAn/aKEeYvf0bEhUpwA4gs6+2ZfMbpo9b9q2TUPl6DbxbfOVu+rOT2zD6vV0+rz/lXp7idueNKtybnuO9XR7cxrbEJuFcqNIa01rJKXnn3668xPpmzC8fX0NJJ7cacRx52Jsc+bN4eMeGqrrhBCLBzg/8V4r9/fihTrDAKnVs6M1xtC76y3OvO1S827/Ln64Ri3FPjExu/atgLHK2aHn1wdjqLwr6F9RbnN9qM4eb9a4G6E8nimS4h9elMdFRNXp+xHEzunOuz5bXQFje1ljrS7xEUT5slgfxqUp+E6yznLfndps23A9pBvAhSz4DHHy/WrN9OYZEjeLzBE0xGZ3l3h6hGexWndpaZ9h5kseQcO4Mru+r17D+3OB1Yq+5xE0VKf8hvDzRcdPEEFDnERPca0+XadH+T0N4/Gz5yP+H2iIY97h5vPX38nw+X2a6Br++d/js7DdHIITjEYQgwwh/9FX2H7xoH/29ffHkIkH+Ysox/FzmATvRxAEQRAEQRAEQRAEQRAEQRAEQRAEQRAEQRAEQRDEz/A/A4qB7cLeBiAAAAAASUVORK5CYII=;" vertex="1" parent="7">
                    <mxGeometry x="370" y="120" width="225" height="225" as="geometry"/>
                </mxCell>
            </root>
        </mxGraphModel>
    </diagram>
</mxfile>